<?xml version="1.0" encoding="utf-8"?>
<!-- Generator: Adobe Illustrator 27.0.1, SVG Export Plug-In . SVG Version: 6.00 Build 0)  -->
<svg version="1.1" id="katman_1" xmlns="http://www.w3.org/2000/svg" xmlns:xlink="http://www.w3.org/1999/xlink" x="0px" y="0px"
	 viewBox="0 0 64 64" style="enable-background:new 0 0 64 64;" xml:space="preserve">
<style type="text/css">
	.st0{fill:none;stroke:#2E3436;stroke-width:3.3453;stroke-miterlimit:10;}
	.st1{fill-rule:evenodd;clip-rule:evenodd;fill:#2E3436;}
	.st2{fill:#2E3436;}
</style>
<path class="st0" d="M10.4,2.1h43.3c4.5,0,8.2,3.7,8.2,8.2v43.3c0,4.5-3.7,8.2-8.2,8.2H10.4c-4.5,0-8.2-3.7-8.2-8.2V10.3
	C2.2,5.8,5.9,2.1,10.4,2.1z"/>
<path class="st1" d="M3.5,3.5L3.5,3.5c-2,2-2,5.2,0,7.2l49.8,49.8c2,2,5.3,2,7.3,0l0,0c2-2,2-5.2,0-7.2L10.8,3.5
	C8.8,1.5,5.5,1.5,3.5,3.5z"/>
<g>
	<path class="st2" d="M29.9,35.1l1.6-3.8c0.1-0.3,0.3-0.5,0.5-0.5c0.2,0,0.3,0.2,0.5,0.5c0.4,1,0.9,2.1,1.4,3.3
		c0.5,1.2,0.9,2.2,1.3,3.1c0.2,0.3,0.2,0.6,0,0.8c-0.2,0.2-0.4,0.3-0.8,0.3h-0.7l14.6,14.6h3.7c0.6,0,1-0.2,1.2-0.5
		c0.2-0.4,0.2-0.7,0.1-1L37.6,15.8c-0.1-0.3-0.4-0.6-0.7-0.8c-0.3-0.2-0.7-0.3-1-0.3h-7.5c-0.4,0-0.8,0.1-1.1,0.3
		c-0.3,0.2-0.6,0.5-0.7,0.8l-4.8,11L29.9,35.1z"/>
	<path class="st2" d="M17.3,37l-6.4,14.8c-0.1,0.3-0.2,0.5-0.2,0.7c0,0.2,0.1,0.4,0.2,0.5c0.1,0.1,0.3,0.2,0.5,0.3
		c0.2,0.1,0.4,0.1,0.6,0.1h9.2c0.4,0,0.7-0.1,1-0.3c0.3-0.2,0.6-0.5,0.7-0.8l1.5-3.2c0.1-0.3,0.4-0.6,0.7-0.8
		c0.3-0.2,0.7-0.3,1.1-0.3h1.9L17.3,37z"/>
</g>
</svg>
