<?xml version="1.0" encoding="utf-8"?>
<!-- Generator: Adobe Illustrator 27.0.1, SVG Export Plug-In . SVG Version: 6.00 Build 0)  -->
<svg version="1.1" id="katman_1" xmlns="http://www.w3.org/2000/svg" xmlns:xlink="http://www.w3.org/1999/xlink" x="0px" y="0px"
	 viewBox="0 0 64 64" style="enable-background:new 0 0 64 64;" xml:space="preserve">
<style type="text/css">
	.st0{fill:#2E3436;}
</style>
<circle class="st0" cx="11.5" cy="11.4" r="4.5"/>
<g>
	<path class="st0" d="M53.8,63.7H10.2c-5.4,0-9.9-4.4-9.9-9.9V10.2c0-5.4,4.4-9.9,9.9-9.9h43.6c5.4,0,9.9,4.4,9.9,9.9v43.6
		C63.7,59.2,59.2,63.7,53.8,63.7z M10.2,3.7c-3.6,0-6.5,2.9-6.5,6.5v43.6c0,3.6,2.9,6.5,6.5,6.5h43.6c3.6,0,6.5-2.9,6.5-6.5V10.2
		c0-3.6-2.9-6.5-6.5-6.5H10.2z"/>
</g>
<g>
	<path class="st0" d="M26.4,15.8c0.1-0.3,0.4-0.6,0.7-0.8c0.3-0.2,0.7-0.3,1.1-0.3h7.6c0.4,0,0.7,0.1,1.1,0.3
		c0.3,0.2,0.6,0.5,0.7,0.8l15.8,36.3c0.1,0.3,0.1,0.7-0.1,1c-0.2,0.4-0.6,0.5-1.2,0.5h-9.2c-0.4,0-0.8-0.1-1.1-0.3s-0.6-0.5-0.8-0.8
		l-1.5-3.2c-0.2-0.3-0.4-0.6-0.8-0.8c-0.3-0.2-0.7-0.3-1.1-0.3H26.3c-0.4,0-0.8,0.1-1.1,0.3c-0.3,0.2-0.6,0.5-0.7,0.8L23,52.5
		c-0.1,0.3-0.4,0.6-0.7,0.8c-0.3,0.2-0.7,0.3-1.1,0.3h-9.3c-0.2,0-0.4,0-0.6-0.1c-0.2-0.1-0.4-0.2-0.5-0.3s-0.2-0.3-0.2-0.5
		s0-0.5,0.2-0.7L26.4,15.8z M29.6,39h4.8c0.4,0,0.6-0.1,0.8-0.3s0.2-0.5,0-0.8c-0.4-0.9-0.8-1.9-1.3-3.1c-0.5-1.2-1-2.3-1.4-3.3
		C32.4,31.2,32.2,31,32,31s-0.3,0.2-0.5,0.5L28.8,38c-0.1,0.3-0.1,0.6,0,0.8C28.9,38.9,29.2,39,29.6,39z"/>
</g>
</svg>
