<?xml version="1.0" encoding="UTF-8" standalone="no"?>
<svg
   height="16px"
   viewBox="0 0 16 16"
   width="16px"
   version="1.1"
   id="svg8"
   sodipodi:docname="caps-off.svg"
   inkscape:version="1.1.2 (0a00cf5339, 2022-02-04)"
   xmlns:inkscape="http://www.inkscape.org/namespaces/inkscape"
   xmlns:sodipodi="http://sodipodi.sourceforge.net/DTD/sodipodi-0.dtd"
   xmlns="http://www.w3.org/2000/svg"
   xmlns:svg="http://www.w3.org/2000/svg">
  <defs
     id="defs12" />
  <sodipodi:namedview
     id="namedview10"
     pagecolor="#ffffff"
     bordercolor="#666666"
     borderopacity="1.0"
     inkscape:pageshadow="2"
     inkscape:pageopacity="0.0"
     inkscape:pagecheckerboard="0"
     showgrid="false"
     inkscape:zoom="11.234375"
     inkscape:cx="6.54242"
     inkscape:cy="10.414465"
     inkscape:window-width="1920"
     inkscape:window-height="1163"
     inkscape:window-x="1920"
     inkscape:window-y="0"
     inkscape:window-maximized="1"
     inkscape:current-layer="svg8" />
  <g
     id="g3280"
     transform="matrix(0.90497432,0,0,0.90497432,110.14653,2.8571342)">
    <path
       id="path1014"
       style="fill:#2e3436;stroke-width:1.55835"
       d="m -112.87256,-1.672997 c -0.39872,0 -0.79738,0.152457 -1.10174,0.45682 l -3.11661,3.116605 c -0.2861,0.292195 -0.4505,0.687805 -0.44442,1.101742 h -0.0119 v 1.558561 h 3.11661 v 4.627624 h 3.11661 V 4.560731 h 3.1166 V 3.00217 h -0.006 c 0,-0.413938 -0.164,-0.809552 -0.45011,-1.101742 l -3.11661,-3.116605 c -0.30437,-0.304363 -0.70354,-0.45682 -1.10226,-0.45682 z" />
    <path
       id="path1016"
       style="fill:#2e3436;stroke-width:2.13217"
       d="m -110.42413,10.659066 h -4.97489 v 0.552424 c 0,1.006607 1.11764,1.827278 2.4877,1.827278 1.37006,0 2.48719,-0.820671 2.48719,-1.827278 z" />
    <path
       id="path1018"
       style="fill:#2e3436;stroke-width:2.13217"
       d="m -115.39902,3.26882 v 5.919535 h 4.97489 V 3.26882 Z" />
    <path
       d="m -118.79889,-2.0521403 14.0146,13.6621923 -2.16143,1.80786 -14.01459,-13.66219246 z m 0,0"
       fill="#2e3436"
       id="path1022"
       style="fill:#ffffff;fill-opacity:0.99957;stroke-width:1.39982" />
  </g>
</svg>
