<?xml version="1.0" encoding="utf-8"?>
<!-- Generator: Adobe Illustrator 27.0.1, SVG Export Plug-In . SVG Version: 6.00 Build 0)  -->
<svg version="1.1" id="katman_1" xmlns="http://www.w3.org/2000/svg" xmlns:xlink="http://www.w3.org/1999/xlink" x="0px" y="0px"
	 viewBox="0 0 64 64" style="enable-background:new 0 0 64 64;" xml:space="preserve">
<style type="text/css">
	.st0{fill:#2E3436;}
	.st1{fill-rule:evenodd;clip-rule:evenodd;fill:#2E3436;}
</style>
<g>
	<path class="st0" d="M53.7,63.5H10.4c-5.4,0-9.9-4.4-9.9-9.9V10.3c0-5.4,4.4-9.9,9.9-9.9h43.3c5.4,0,9.9,4.4,9.9,9.9v43.3
		C63.6,59,59.1,63.5,53.7,63.5z M10.4,3.8c-3.6,0-6.5,2.9-6.5,6.5v43.3c0,3.6,2.9,6.5,6.5,6.5h43.3c3.6,0,6.5-2.9,6.5-6.5V10.3
		c0-3.6-2.9-6.5-6.5-6.5H10.4z"/>
</g>
<path class="st1" d="M3.5,3.5L3.5,3.5c-2,2-2,5.2,0,7.2l49.8,49.8c2,2,5.3,2,7.3,0l0,0c2-2,2-5.2,0-7.2L10.8,3.5
	C8.8,1.5,5.5,1.5,3.5,3.5z"/>
<path class="st0" d="M29.9,35.1l1.6-3.8c0.1-0.3,0.3-0.5,0.5-0.5s0.3,0.2,0.5,0.5c0.4,1,0.9,2.1,1.4,3.3s0.9,2.2,1.3,3.1
	c0.2,0.3,0.2,0.6,0,0.8s-0.4,0.3-0.8,0.3h-0.7l14.6,14.6H52c0.6,0,1-0.2,1.2-0.5c0.2-0.4,0.2-0.7,0.1-1L37.6,15.8
	c-0.1-0.3-0.4-0.6-0.7-0.8s-0.7-0.3-1-0.3h-7.5c-0.4,0-0.8,0.1-1.1,0.3c-0.3,0.2-0.6,0.5-0.7,0.8l-4.8,11L29.9,35.1z"/>
<path class="st0" d="M17.3,37l-6.4,14.8c-0.1,0.3-0.2,0.5-0.2,0.7s0.1,0.4,0.2,0.5c0.1,0.1,0.3,0.2,0.5,0.3s0.4,0.1,0.6,0.1h9.2
	c0.4,0,0.7-0.1,1-0.3s0.6-0.5,0.7-0.8l1.5-3.2c0.1-0.3,0.4-0.6,0.7-0.8c0.3-0.2,0.7-0.3,1.1-0.3h1.9L17.3,37z"/>
</svg>
