<?xml version="1.0" encoding="UTF-8" standalone="no"?>
<!-- Generator: Adobe Illustrator 27.0.1, SVG Export Plug-In . SVG Version: 6.00 Build 0)  -->

<svg
   version="1.1"
   id="katman_1"
   x="0px"
   y="0px"
   viewBox="0 0 64 64"
   style="enable-background:new 0 0 64 64;"
   xml:space="preserve"
   sodipodi:docname="caps-on-symbolic.svg"
   inkscape:version="1.2.2 (b0a8486541, 2022-12-01)"
   xmlns:inkscape="http://www.inkscape.org/namespaces/inkscape"
   xmlns:sodipodi="http://sodipodi.sourceforge.net/DTD/sodipodi-0.dtd"
   xmlns="http://www.w3.org/2000/svg"
   xmlns:svg="http://www.w3.org/2000/svg"><defs
   id="defs15" /><sodipodi:namedview
   id="namedview13"
   pagecolor="#ffffff"
   bordercolor="#000000"
   borderopacity="0.25"
   inkscape:showpageshadow="2"
   inkscape:pageopacity="0.0"
   inkscape:pagecheckerboard="0"
   inkscape:deskcolor="#d1d1d1"
   showgrid="false"
   inkscape:zoom="13.171875"
   inkscape:cx="32"
   inkscape:cy="32.03796"
   inkscape:window-width="1920"
   inkscape:window-height="1017"
   inkscape:window-x="0"
   inkscape:window-y="32"
   inkscape:window-maximized="1"
   inkscape:current-layer="katman_1" />
<style
   type="text/css"
   id="style2">
	.st0{fill:#2E3436;}
	.st1{fill:none;stroke:#2E3436;stroke-width:3.3644;stroke-miterlimit:10;}
</style>
<circle
   class="st0"
   cx="11.5"
   cy="11.4"
   r="4.5"
   id="circle4" />

<g
   id="g10">
	<path
   class="st0"
   d="M26.4,15.8c0.1-0.3,0.4-0.6,0.7-0.8c0.3-0.2,0.7-0.3,1.1-0.3h7.6c0.4,0,0.7,0.1,1.1,0.3   c0.3,0.2,0.6,0.5,0.7,0.8l15.8,36.3c0.1,0.3,0.1,0.7-0.1,1c-0.2,0.4-0.6,0.5-1.2,0.5h-9.2c-0.4,0-0.8-0.1-1.1-0.3   c-0.3-0.2-0.6-0.5-0.8-0.8l-1.5-3.2c-0.2-0.3-0.4-0.6-0.8-0.8c-0.3-0.2-0.7-0.3-1.1-0.3H26.3c-0.4,0-0.8,0.1-1.1,0.3   c-0.3,0.2-0.6,0.5-0.7,0.8l-1.5,3.2c-0.1,0.3-0.4,0.6-0.7,0.8c-0.3,0.2-0.7,0.3-1.1,0.3h-9.3c-0.2,0-0.4,0-0.6-0.1   c-0.2-0.1-0.4-0.2-0.5-0.3c-0.1-0.1-0.2-0.3-0.2-0.5c0-0.2,0-0.5,0.2-0.7L26.4,15.8z M29.6,39h4.8c0.4,0,0.6-0.1,0.8-0.3   c0.2-0.2,0.2-0.5,0-0.8c-0.4-0.9-0.8-1.9-1.3-3.1c-0.5-1.2-1-2.3-1.4-3.3c-0.1-0.3-0.3-0.5-0.5-0.5c-0.2,0-0.3,0.2-0.5,0.5   l-2.7,6.5c-0.1,0.3-0.1,0.6,0,0.8C28.9,38.9,29.2,39,29.6,39z"
   id="path8" />
</g>
</svg>
