<?xml version="1.0" encoding="UTF-8" standalone="no"?>
<!-- Generator: Adobe Illustrator 27.0.1, SVG Export Plug-In . SVG Version: 6.00 Build 0)  -->

<svg
   version="1.1"
   id="katman_1"
   x="0px"
   y="0px"
   viewBox="0 0 64 64"
   style="enable-background:new 0 0 64 64;"
   xml:space="preserve"
   sodipodi:docname="caps-off-symbolic.svg"
   inkscape:version="1.2.2 (b0a8486541, 2022-12-01)"
   xmlns:inkscape="http://www.inkscape.org/namespaces/inkscape"
   xmlns:sodipodi="http://sodipodi.sourceforge.net/DTD/sodipodi-0.dtd"
   xmlns="http://www.w3.org/2000/svg"
   xmlns:svg="http://www.w3.org/2000/svg"><defs
   id="defs17" /><sodipodi:namedview
   id="namedview15"
   pagecolor="#ffffff"
   bordercolor="#000000"
   borderopacity="0.25"
   inkscape:showpageshadow="2"
   inkscape:pageopacity="0.0"
   inkscape:pagecheckerboard="0"
   inkscape:deskcolor="#d1d1d1"
   showgrid="false"
   inkscape:zoom="13.171875"
   inkscape:cx="32"
   inkscape:cy="32.03796"
   inkscape:window-width="1920"
   inkscape:window-height="1017"
   inkscape:window-x="0"
   inkscape:window-y="32"
   inkscape:window-maximized="1"
   inkscape:current-layer="katman_1" />
<style
   type="text/css"
   id="style2">
	.st0{fill:none;stroke:#2E3436;stroke-width:3.3453;stroke-miterlimit:10;}
	.st1{fill-rule:evenodd;clip-rule:evenodd;fill:#2E3436;}
	.st2{fill:#2E3436;}
</style>

<path
   class="st1"
   d="M3.5,3.5L3.5,3.5c-2,2-2,5.2,0,7.2l49.8,49.8c2,2,5.3,2,7.3,0l0,0c2-2,2-5.2,0-7.2L10.8,3.5  C8.8,1.5,5.5,1.5,3.5,3.5z"
   id="path6" />
<g
   id="g12">
	<path
   class="st2"
   d="M29.9,35.1l1.6-3.8c0.1-0.3,0.3-0.5,0.5-0.5c0.2,0,0.3,0.2,0.5,0.5c0.4,1,0.9,2.1,1.4,3.3   c0.5,1.2,0.9,2.2,1.3,3.1c0.2,0.3,0.2,0.6,0,0.8c-0.2,0.2-0.4,0.3-0.8,0.3h-0.7l14.6,14.6h3.7c0.6,0,1-0.2,1.2-0.5   c0.2-0.4,0.2-0.7,0.1-1L37.6,15.8c-0.1-0.3-0.4-0.6-0.7-0.8c-0.3-0.2-0.7-0.3-1-0.3h-7.5c-0.4,0-0.8,0.1-1.1,0.3   c-0.3,0.2-0.6,0.5-0.7,0.8l-4.8,11L29.9,35.1z"
   id="path8" />
	<path
   class="st2"
   d="M17.3,37l-6.4,14.8c-0.1,0.3-0.2,0.5-0.2,0.7c0,0.2,0.1,0.4,0.2,0.5c0.1,0.1,0.3,0.2,0.5,0.3   c0.2,0.1,0.4,0.1,0.6,0.1h9.2c0.4,0,0.7-0.1,1-0.3c0.3-0.2,0.6-0.5,0.7-0.8l1.5-3.2c0.1-0.3,0.4-0.6,0.7-0.8   c0.3-0.2,0.7-0.3,1.1-0.3h1.9L17.3,37z"
   id="path10" />
</g>
</svg>
