<?xml version="1.0" encoding="utf-8"?>
<!-- Generator: Adobe Illustrator 27.0.1, SVG Export Plug-In . SVG Version: 6.00 Build 0)  -->
<svg version="1.1" id="katman_1" xmlns="http://www.w3.org/2000/svg" xmlns:xlink="http://www.w3.org/1999/xlink" x="0px" y="0px"
	 viewBox="0 0 64 64" style="enable-background:new 0 0 64 64;" xml:space="preserve">
<style type="text/css">
	.st0{fill:#2E3436;}
	.st1{fill:none;stroke:#2E3436;stroke-width:3.3644;stroke-miterlimit:10;}
</style>
<circle class="st0" cx="11.5" cy="11.4" r="4.5"/>
<path class="st1" d="M10.2,2h43.6c4.5,0,8.2,3.7,8.2,8.2v43.6c0,4.5-3.7,8.2-8.2,8.2H10.2C5.7,62,2,58.3,2,53.8V10.2
	C2,5.7,5.7,2,10.2,2z"/>
<g>
	<path class="st0" d="M26.4,15.8c0.1-0.3,0.4-0.6,0.7-0.8c0.3-0.2,0.7-0.3,1.1-0.3h7.6c0.4,0,0.7,0.1,1.1,0.3
		c0.3,0.2,0.6,0.5,0.7,0.8l15.8,36.3c0.1,0.3,0.1,0.7-0.1,1c-0.2,0.4-0.6,0.5-1.2,0.5h-9.2c-0.4,0-0.8-0.1-1.1-0.3
		c-0.3-0.2-0.6-0.5-0.8-0.8l-1.5-3.2c-0.2-0.3-0.4-0.6-0.8-0.8c-0.3-0.2-0.7-0.3-1.1-0.3H26.3c-0.4,0-0.8,0.1-1.1,0.3
		c-0.3,0.2-0.6,0.5-0.7,0.8l-1.5,3.2c-0.1,0.3-0.4,0.6-0.7,0.8c-0.3,0.2-0.7,0.3-1.1,0.3h-9.3c-0.2,0-0.4,0-0.6-0.1
		c-0.2-0.1-0.4-0.2-0.5-0.3c-0.1-0.1-0.2-0.3-0.2-0.5c0-0.2,0-0.5,0.2-0.7L26.4,15.8z M29.6,39h4.8c0.4,0,0.6-0.1,0.8-0.3
		c0.2-0.2,0.2-0.5,0-0.8c-0.4-0.9-0.8-1.9-1.3-3.1c-0.5-1.2-1-2.3-1.4-3.3c-0.1-0.3-0.3-0.5-0.5-0.5c-0.2,0-0.3,0.2-0.5,0.5
		l-2.7,6.5c-0.1,0.3-0.1,0.6,0,0.8C28.9,38.9,29.2,39,29.6,39z"/>
</g>
</svg>
