<?xml version="1.0" encoding="UTF-8" standalone="no"?>
<svg
   height="16px"
   viewBox="0 0 16 16"
   width="16px"
   version="1.1"
   id="svg8"
   sodipodi:docname="caps-on.svg"
   inkscape:version="1.1.2 (0a00cf5339, 2022-02-04)"
   xmlns:inkscape="http://www.inkscape.org/namespaces/inkscape"
   xmlns:sodipodi="http://sodipodi.sourceforge.net/DTD/sodipodi-0.dtd"
   xmlns="http://www.w3.org/2000/svg"
   xmlns:svg="http://www.w3.org/2000/svg">
  <defs
     id="defs12" />
  <sodipodi:namedview
     id="namedview10"
     pagecolor="#ffffff"
     bordercolor="#666666"
     borderopacity="1.0"
     inkscape:pageshadow="2"
     inkscape:pageopacity="0.0"
     inkscape:pagecheckerboard="0"
     showgrid="false"
     inkscape:zoom="31.775611"
     inkscape:cx="6.1525174"
     inkscape:cy="6.9550197"
     inkscape:window-width="1920"
     inkscape:window-height="1163"
     inkscape:window-x="1920"
     inkscape:window-y="0"
     inkscape:window-maximized="1"
     inkscape:current-layer="svg8" />
  <g
     id="g1010"
     transform="matrix(0.95161935,0,0,0.95161935,20.732371,-20.294872)">
    <path
       id="path1004"
       style="fill:#2e3436;stroke-width:1.55835"
       d="m -13.379952,22.37751 c -0.398719,0 -0.797375,0.152457 -1.101741,0.45682 l -3.116606,3.116605 c -0.2861,0.292195 -0.450501,0.687805 -0.444418,1.101742 h -0.01188 v 1.558561 h 3.116606 v 4.627624 h 3.116607 v -4.627624 h 3.1166034 v -1.558561 h -0.00619 c 0,-0.413938 -0.1639967,-0.809552 -0.4501039,-1.101742 L -12.277693,22.83433 c -0.304366,-0.304363 -0.70354,-0.45682 -1.102259,-0.45682 z" />
    <path
       id="path1006"
       style="fill:#2e3436;stroke-width:2.13217"
       d="m -10.931522,35.767906 h -4.974891 v 0.552424 c 0,1.006607 1.117642,1.827278 2.487705,1.827278 1.37006,0 2.487186,-0.820671 2.487186,-1.827278 z"
       transform="translate(0,-1.0583333)" />
    <path
       id="path1008"
       style="fill:#2e3436;stroke-width:2.13217"
       d="m -15.906413,27.319327 v 5.919535 h 4.974891 v -5.919535 z" />
  </g>
</svg>
