<?xml version="1.0" encoding="utf-8"?>
<!-- Generator: Adobe Illustrator 27.0.1, SVG Export Plug-In . SVG Version: 6.00 Build 0)  -->
<svg version="1.1" id="katman_1" xmlns="http://www.w3.org/2000/svg" xmlns:xlink="http://www.w3.org/1999/xlink" x="0px" y="0px"
	 viewBox="0 0 64 64" style="enable-background:new 0 0 64 64;" xml:space="preserve">
<style type="text/css">
	.st0{fill:none;stroke:#2F3536;stroke-width:3.3294;stroke-miterlimit:10;}
	.st1{fill-rule:evenodd;clip-rule:evenodd;fill:#2F3536;}
	.st2{fill:#2F3536;}
</style>
<path class="st0" d="M10.6,2.3h43.1c4.5,0,8.1,3.6,8.1,8.1v43.1c0,4.5-3.6,8.1-8.1,8.1H10.6c-4.5,0-8.1-3.6-8.1-8.1V10.5
	C2.5,6,6.1,2.3,10.6,2.3z"/>
<path class="st1" d="M3.8,3.8L3.8,3.8c-2,2-2,5.2,0,7.2l49.5,49.5c2,2,5.2,2,7.2,0l0,0c2-2,2-5.2,0-7.2L11,3.8
	C9,1.8,5.8,1.8,3.8,3.8z"/>
<g>
	<path class="st2" d="M41.7,44.6V12c0-0.4-0.2-0.8-0.5-1.1c-0.3-0.3-0.7-0.5-1.1-0.5h-5.3c-0.4,0-0.9,0.1-1.4,0.3
		c-0.5,0.2-0.9,0.4-1.2,0.7L20,23L41.7,44.6z"/>
	<path class="st2" d="M28.9,46.2v10.2c0,0.4,0.2,0.8,0.5,1.1c0.3,0.3,0.7,0.5,1.1,0.5h9.7c0.1,0,0.3,0,0.4-0.1L28.9,46.2z"/>
</g>
</svg>
