<?xml version="1.0" encoding="utf-8"?>
<!-- Generator: Adobe Illustrator 27.0.1, SVG Export Plug-In . SVG Version: 6.00 Build 0)  -->
<svg version="1.1" id="katman_1" xmlns="http://www.w3.org/2000/svg" xmlns:xlink="http://www.w3.org/1999/xlink" x="0px" y="0px"
	 viewBox="0 0 64 64" style="enable-background:new 0 0 64 64;" xml:space="preserve">
<style type="text/css">
	.st0{fill:#2F3536;}
	.st1{fill:none;stroke:#2F3536;stroke-width:3.3644;stroke-miterlimit:10;}
</style>
<g>
	<circle class="st0" cx="11.6" cy="11.4" r="4.5"/>
	<path class="st1" d="M10.2,2h43.6c4.5,0,8.2,3.7,8.2,8.2v43.6c0,4.5-3.7,8.2-8.2,8.2H10.2C5.7,62,2,58.3,2,53.8V10.2
		C2,5.7,5.7,2,10.2,2z"/>
	<path class="st0" d="M41.6,11.7v45c0,0.4-0.2,0.8-0.5,1.1c-0.3,0.3-0.7,0.5-1.1,0.5h-9.8c-0.4,0-0.8-0.2-1.1-0.5
		c-0.3-0.3-0.5-0.7-0.5-1.1V33.9c0-0.4-0.1-0.7-0.3-0.8c-0.2-0.1-0.5,0-0.8,0.3c-0.4,0.3-0.7,0.6-1,0.9c-0.3,0.3-0.6,0.6-0.8,0.8
		c-0.3,0.3-0.7,0.5-1.1,0.5c-0.4,0-0.8-0.2-1.1-0.5l-6.8-7.2c-0.3-0.3-0.5-0.7-0.5-1.1s0.2-0.8,0.5-1.1L32,11.2
		c0.3-0.3,0.7-0.6,1.2-0.8c0.5-0.2,1-0.3,1.4-0.3h5.4c0.4,0,0.8,0.2,1.1,0.5C41.5,10.9,41.6,11.3,41.6,11.7z"/>
</g>
</svg>
