<?xml version="1.0" encoding="UTF-8" standalone="no"?>
<!-- Generator: Adobe Illustrator 27.0.1, SVG Export Plug-In . SVG Version: 6.00 Build 0)  -->

<svg
   version="1.1"
   id="katman_1"
   x="0px"
   y="0px"
   viewBox="0 0 64 64"
   style="enable-background:new 0 0 64 64;"
   xml:space="preserve"
   sodipodi:docname="num-off-symbolic.svg"
   inkscape:version="1.2.2 (b0a8486541, 2022-12-01)"
   xmlns:inkscape="http://www.inkscape.org/namespaces/inkscape"
   xmlns:sodipodi="http://sodipodi.sourceforge.net/DTD/sodipodi-0.dtd"
   xmlns="http://www.w3.org/2000/svg"
   xmlns:svg="http://www.w3.org/2000/svg"><defs
   id="defs17" /><sodipodi:namedview
   id="namedview15"
   pagecolor="#ffffff"
   bordercolor="#000000"
   borderopacity="0.25"
   inkscape:showpageshadow="2"
   inkscape:pageopacity="0.0"
   inkscape:pagecheckerboard="0"
   inkscape:deskcolor="#d1d1d1"
   showgrid="false"
   inkscape:zoom="13.171875"
   inkscape:cx="32"
   inkscape:cy="32.03796"
   inkscape:window-width="1920"
   inkscape:window-height="1017"
   inkscape:window-x="0"
   inkscape:window-y="32"
   inkscape:window-maximized="1"
   inkscape:current-layer="katman_1" />
<style
   type="text/css"
   id="style2">
	.st0{fill:none;stroke:#2F3536;stroke-width:3.3294;stroke-miterlimit:10;}
	.st1{fill-rule:evenodd;clip-rule:evenodd;fill:#2F3536;}
	.st2{fill:#2F3536;}
</style>

<path
   class="st1"
   d="M3.8,3.8L3.8,3.8c-2,2-2,5.2,0,7.2l49.5,49.5c2,2,5.2,2,7.2,0l0,0c2-2,2-5.2,0-7.2L11,3.8  C9,1.8,5.8,1.8,3.8,3.8z"
   id="path6" />
<g
   id="g12">
	<path
   class="st2"
   d="M41.7,44.6V12c0-0.4-0.2-0.8-0.5-1.1c-0.3-0.3-0.7-0.5-1.1-0.5h-5.3c-0.4,0-0.9,0.1-1.4,0.3   c-0.5,0.2-0.9,0.4-1.2,0.7L20,23L41.7,44.6z"
   id="path8" />
	<path
   class="st2"
   d="M28.9,46.2v10.2c0,0.4,0.2,0.8,0.5,1.1c0.3,0.3,0.7,0.5,1.1,0.5h9.7c0.1,0,0.3,0,0.4-0.1L28.9,46.2z"
   id="path10" />
</g>
</svg>
