<?xml version="1.0" encoding="UTF-8" standalone="no"?>
<!-- Generator: Adobe Illustrator 27.0.1, SVG Export Plug-In . SVG Version: 6.00 Build 0)  -->

<svg
   version="1.1"
   id="katman_1"
   x="0px"
   y="0px"
   viewBox="0 0 64 64"
   style="enable-background:new 0 0 64 64;"
   xml:space="preserve"
   sodipodi:docname="num-on-symbolic.svg"
   inkscape:version="1.2.2 (b0a8486541, 2022-12-01)"
   xmlns:inkscape="http://www.inkscape.org/namespaces/inkscape"
   xmlns:sodipodi="http://sodipodi.sourceforge.net/DTD/sodipodi-0.dtd"
   xmlns="http://www.w3.org/2000/svg"
   xmlns:svg="http://www.w3.org/2000/svg"><defs
   id="defs15">
	
	
	
</defs><sodipodi:namedview
   id="namedview13"
   pagecolor="#ffffff"
   bordercolor="#000000"
   borderopacity="0.25"
   inkscape:showpageshadow="2"
   inkscape:pageopacity="0.0"
   inkscape:pagecheckerboard="0"
   inkscape:deskcolor="#d1d1d1"
   showgrid="false"
   inkscape:zoom="13.171875"
   inkscape:cx="32"
   inkscape:cy="32.03796"
   inkscape:window-width="1920"
   inkscape:window-height="1017"
   inkscape:window-x="0"
   inkscape:window-y="32"
   inkscape:window-maximized="1"
   inkscape:current-layer="katman_1" />
<style
   type="text/css"
   id="style2">
	.st0{fill:#2F3536;}
	.st1{fill:none;stroke:#2F3536;stroke-width:3.3644;stroke-miterlimit:10;}
</style>
<circle
   class="st0"
   cx="11.6"
   cy="11.4"
   r="4.5"
   id="circle4" /><path
   class="st0"
   d="m 41.6,11.7 v 45 c 0,0.4 -0.2,0.8 -0.5,1.1 -0.3,0.3 -0.7,0.5 -1.1,0.5 h -9.8 c -0.4,0 -0.8,-0.2 -1.1,-0.5 -0.3,-0.3 -0.5,-0.7 -0.5,-1.1 V 33.9 c 0,-0.4 -0.1,-0.7 -0.3,-0.8 -0.2,-0.1 -0.5,0 -0.8,0.3 -0.4,0.3 -0.7,0.6 -1,0.9 -0.3,0.3 -0.6,0.6 -0.8,0.8 -0.3,0.3 -0.7,0.5 -1.1,0.5 -0.4,0 -0.8,-0.2 -1.1,-0.5 l -6.8,-7.2 c -0.3,-0.3 -0.5,-0.7 -0.5,-1.1 0,-0.4 0.2,-0.8 0.5,-1.1 L 32,11.2 c 0.3,-0.3 0.7,-0.6 1.2,-0.8 0.5,-0.2 1,-0.3 1.4,-0.3 H 40 c 0.4,0 0.8,0.2 1.1,0.5 0.4,0.3 0.5,0.7 0.5,1.1 z"
   id="path8" />
</svg>
