<?xml version="1.0" encoding="utf-8"?>
<!-- Generator: Adobe Illustrator 27.0.1, SVG Export Plug-In . SVG Version: 6.00 Build 0)  -->
<svg version="1.1" id="katman_1" xmlns="http://www.w3.org/2000/svg" xmlns:xlink="http://www.w3.org/1999/xlink" x="0px" y="0px"
	 viewBox="0 0 64 64" style="enable-background:new 0 0 64 64;" xml:space="preserve">
<style type="text/css">
	.st0{fill:#2F3536;}
</style>
<circle class="st0" cx="11.6" cy="11.4" r="4.5"/>
<g>
	<path class="st0" d="M53.8,63.7H10.2c-5.4,0-9.9-4.4-9.9-9.9V10.2c0-5.4,4.4-9.9,9.9-9.9h43.6c5.4,0,9.9,4.4,9.9,9.9v43.6
		C63.7,59.2,59.2,63.7,53.8,63.7z M10.2,3.7c-3.6,0-6.5,2.9-6.5,6.5v43.6c0,3.6,2.9,6.5,6.5,6.5h43.6c3.6,0,6.5-2.9,6.5-6.5V10.2
		c0-3.6-2.9-6.5-6.5-6.5H10.2z"/>
</g>
<path class="st0" d="M41.6,11.7v45c0,0.4-0.2,0.8-0.5,1.1s-0.7,0.5-1.1,0.5h-9.8c-0.4,0-0.8-0.2-1.1-0.5c-0.3-0.3-0.5-0.7-0.5-1.1
	V33.9c0-0.4-0.1-0.7-0.3-0.8c-0.2-0.1-0.5,0-0.8,0.3c-0.4,0.3-0.7,0.6-1,0.9c-0.3,0.3-0.6,0.6-0.8,0.8c-0.3,0.3-0.7,0.5-1.1,0.5
	s-0.8-0.2-1.1-0.5l-6.8-7.2c-0.3-0.3-0.5-0.7-0.5-1.1s0.2-0.8,0.5-1.1L32,11.2c0.3-0.3,0.7-0.6,1.2-0.8s1-0.3,1.4-0.3H40
	c0.4,0,0.8,0.2,1.1,0.5C41.5,10.9,41.6,11.3,41.6,11.7z"/>
</svg>
