<?xml version="1.0" encoding="utf-8"?>
<!-- Generator: Adobe Illustrator 27.0.1, SVG Export Plug-In . SVG Version: 6.00 Build 0)  -->
<svg version="1.1" id="katman_1" xmlns="http://www.w3.org/2000/svg" xmlns:xlink="http://www.w3.org/1999/xlink" x="0px" y="0px"
	 viewBox="0 0 64 64" style="enable-background:new 0 0 64 64;" xml:space="preserve">
<style type="text/css">
	.st0{fill:#2F3536;}
	.st1{fill-rule:evenodd;clip-rule:evenodd;fill:#2F3536;}
</style>
<g>
	<path class="st0" d="M53.7,63.3H10.6c-5.4,0-9.8-4.4-9.8-9.8v-43c0-5.4,4.4-9.9,9.8-9.9h43.1c5.4,0,9.8,4.4,9.8,9.8v43.1
		C63.5,58.9,59.1,63.3,53.7,63.3z M10.6,4c-3.5,0-6.4,2.9-6.4,6.5v43c0,3.6,2.8,6.4,6.4,6.4h43.1c3.6,0,6.4-2.8,6.4-6.4V10.4
		c0-3.6-2.8-6.4-6.4-6.4H10.6z"/>
</g>
<path class="st1" d="M3.8,3.8L3.8,3.8c-2,2-2,5.2,0,7.2l49.5,49.5c2,2,5.2,2,7.2,0l0,0c2-2,2-5.2,0-7.2L11,3.8
	C9,1.8,5.8,1.8,3.8,3.8z"/>
<path class="st0" d="M41.7,44.6V12c0-0.4-0.2-0.8-0.5-1.1s-0.7-0.5-1.1-0.5h-5.3c-0.4,0-0.9,0.1-1.4,0.3s-0.9,0.4-1.2,0.7L20,23
	L41.7,44.6z"/>
<path class="st0" d="M28.9,46.2v10.2c0,0.4,0.2,0.8,0.5,1.1s0.7,0.5,1.1,0.5h9.7c0.1,0,0.3,0,0.4-0.1L28.9,46.2z"/>
</svg>
