<?xml version="1.0" encoding="UTF-8" standalone="no"?>
<svg
   width="64"
   height="64"
   version="1.1"
   id="svg10"
   sodipodi:docname="pardus-greeter-reboot-symbolic.svg"
   inkscape:version="1.2.1 (9c6d41e410, 2022-07-14)"
   xmlns:inkscape="http://www.inkscape.org/namespaces/inkscape"
   xmlns:sodipodi="http://sodipodi.sourceforge.net/DTD/sodipodi-0.dtd"
   xmlns="http://www.w3.org/2000/svg"
   xmlns:svg="http://www.w3.org/2000/svg">
  <defs
     id="defs14" />
  <sodipodi:namedview
     id="namedview12"
     pagecolor="#ffffff"
     bordercolor="#666666"
     borderopacity="1.0"
     inkscape:showpageshadow="2"
     inkscape:pageopacity="0.0"
     inkscape:pagecheckerboard="0"
     inkscape:deskcolor="#d1d1d1"
     showgrid="false"
     inkscape:zoom="10.420707"
     inkscape:cx="49.37285"
     inkscape:cy="29.172685"
     inkscape:window-width="1920"
     inkscape:window-height="1128"
     inkscape:window-x="0"
     inkscape:window-y="35"
     inkscape:window-maximized="1"
     inkscape:current-layer="svg10" />
  <g
     fill="#474747"
     id="g8"
     transform="matrix(4.0011552,0,0,3.9966258,-0.00115519,0)">
    <path
       d="M 11.049,1.823 A 1,1 0 0 0 10.516,3.693 4.995,4.995 0 0 1 12.9,9.005 4.993,4.993 0 0 1 8.643,12.975 4.99,4.99 0 0 1 3.516,10.222 4.993,4.993 0 0 1 4.465,4.48 1.0005561,1.0005561 0 1 0 3.05,3.065 7.007,7.007 0 0 0 1.72,11.105 7.005,7.005 0 0 0 8.9,14.955 7.005,7.005 0 0 0 14.858,9.4 7.006,7.006 0 0 0 11.522,1.966 1,1 0 0 0 11.048,1.824 Z"
       style="line-height:normal;font-variant-ligatures:normal;font-variant-position:normal;font-variant-caps:normal;font-variant-numeric:normal;font-variant-alternates:normal;font-feature-settings:normal;text-indent:0;text-align:start;text-decoration-line:none;text-decoration-style:solid;text-decoration-color:#000000;text-transform:none;text-orientation:mixed;shape-padding:0;isolation:auto;mix-blend-mode:normal;marker:none"
       color="#000000"
       font-weight="400"
       font-family="sans-serif"
       overflow="visible"
       id="path2" />
    <path
       d="M 7.984,0 A 1,1 0 0 0 7,1.015 v 5 a 1,1 0 1 0 2,0 v -5 A 1,1 0 0 0 7.984,0.001 Z"
       style="line-height:normal;font-variant-ligatures:normal;font-variant-position:normal;font-variant-caps:normal;font-variant-numeric:normal;font-variant-alternates:normal;font-feature-settings:normal;text-indent:0;text-align:start;text-decoration-line:none;text-decoration-style:solid;text-decoration-color:#000000;text-transform:none;text-orientation:mixed;shape-padding:0;isolation:auto;mix-blend-mode:normal"
       color="#000000"
       font-weight="400"
       font-family="sans-serif"
       overflow="visible"
       id="path4" />
    <path
       d="m 5,1.014 c 0.552,0 1,0.475 1,0.994 v 4.006 l -5,-5 z"
       id="path6" />
  </g>
</svg>
