<?xml version="1.0" encoding="UTF-8" standalone="no"?>
<svg
   width="64"
   height="64"
   version="1.1"
   id="svg8"
   sodipodi:docname="pardus-greeter-shutdown-symbolic.svg"
   inkscape:version="1.2.1 (9c6d41e410, 2022-07-14)"
   xmlns:inkscape="http://www.inkscape.org/namespaces/inkscape"
   xmlns:sodipodi="http://sodipodi.sourceforge.net/DTD/sodipodi-0.dtd"
   xmlns="http://www.w3.org/2000/svg"
   xmlns:svg="http://www.w3.org/2000/svg">
  <defs
     id="defs12" />
  <sodipodi:namedview
     id="namedview10"
     pagecolor="#ffffff"
     bordercolor="#666666"
     borderopacity="1.0"
     inkscape:showpageshadow="2"
     inkscape:pageopacity="0.0"
     inkscape:pagecheckerboard="0"
     inkscape:deskcolor="#d1d1d1"
     showgrid="false"
     inkscape:zoom="10.420707"
     inkscape:cx="-6.7173945"
     inkscape:cy="17.94504"
     inkscape:window-width="1920"
     inkscape:window-height="1128"
     inkscape:window-x="0"
     inkscape:window-y="35"
     inkscape:window-maximized="1"
     inkscape:current-layer="svg8" />
  <g
     color="#000000"
     font-weight="400"
     font-family="sans-serif"
     fill="#474747"
     id="g6"
     transform="matrix(4,0,0,4,-0.00199028,0)">
    <path
       d="m 5.04,1.815 a 1,1 0 0 0 -0.546,0.14 7.009,7.009 0 0 0 -3.254,7.87 7.006,7.006 0 0 0 6.75,5.19 7.007,7.007 0 0 0 6.766,-5.17 7.01,7.01 0 0 0 -3.233,-7.88 1.0004362,1.0004362 0 1 0 -1.007,1.729 4.991,4.991 0 0 1 2.308,5.627 A 4.99,4.99 0 0 1 7.992,13.014 4.989,4.989 0 0 1 3.172,9.307 4.992,4.992 0 0 1 5.496,3.687 1,1 0 0 0 5.039,1.815 Z"
       style="line-height:normal;font-variant-ligatures:normal;font-variant-position:normal;font-variant-caps:normal;font-variant-numeric:normal;font-variant-alternates:normal;font-feature-settings:normal;text-indent:0;text-align:start;text-decoration-line:none;text-decoration-style:solid;text-decoration-color:#000000;text-transform:none;text-orientation:mixed;shape-padding:0;isolation:auto;mix-blend-mode:normal;marker:none"
       overflow="visible"
       id="path2" />
    <path
       d="M 7.984,0 A 1,1 0 0 0 7,1.015 v 5 a 1,1 0 1 0 2,0 v -5 A 1,1 0 0 0 7.984,0.001 Z"
       style="line-height:normal;font-variant-ligatures:normal;font-variant-position:normal;font-variant-caps:normal;font-variant-numeric:normal;font-variant-alternates:normal;font-feature-settings:normal;text-indent:0;text-align:start;text-decoration-line:none;text-decoration-style:solid;text-decoration-color:#000000;text-transform:none;text-orientation:mixed;shape-padding:0;isolation:auto;mix-blend-mode:normal"
       overflow="visible"
       id="path4" />
  </g>
</svg>
