<?xml version="1.0" encoding="UTF-8" standalone="no"?>
<!-- Created with Inkscape (http://www.inkscape.org/) -->

<svg
   width="64"
   height="64"
   viewBox="0 0 16.933333 16.933333"
   version="1.1"
   id="svg387"
   inkscape:version="1.2.1 (9c6d41e410, 2022-07-14)"
   sodipodi:docname="pardus-greeter-suspend-symbolic2.svg"
   xmlns:inkscape="http://www.inkscape.org/namespaces/inkscape"
   xmlns:sodipodi="http://sodipodi.sourceforge.net/DTD/sodipodi-0.dtd"
   xmlns="http://www.w3.org/2000/svg"
   xmlns:svg="http://www.w3.org/2000/svg">
  <sodipodi:namedview
     id="namedview389"
     pagecolor="#ffffff"
     bordercolor="#666666"
     borderopacity="1.0"
     inkscape:showpageshadow="2"
     inkscape:pageopacity="0.0"
     inkscape:pagecheckerboard="0"
     inkscape:deskcolor="#d1d1d1"
     inkscape:document-units="mm"
     showgrid="false"
     inkscape:zoom="9.5144352"
     inkscape:cx="35.419864"
     inkscape:cy="43.82814"
     inkscape:window-width="1920"
     inkscape:window-height="1128"
     inkscape:window-x="0"
     inkscape:window-y="35"
     inkscape:window-maximized="1"
     inkscape:current-layer="layer1" />
  <defs
     id="defs384" />
  <g
     inkscape:label="Layer 1"
     inkscape:groupmode="layer"
     id="layer1">
    <path
       style="fill:#474747;fill-opacity:1;stroke-width:0.0316376"
       d="M 8.1361747,15.812834 C 7.0239944,15.738942 5.9639942,15.460361 5.019582,14.993742 2.5784473,13.787628 0.94523054,11.470878 0.60381962,8.7298667 c -0.0630132,-0.505594 -0.0479319,-1.50089 0.0306282,-2.02479 0.13403474,-0.89385 0.35427814,-1.601876 0.74793898,-2.404438 0.6317107,-1.28789 1.5366946,-2.322053 2.7313444,-3.121244 0.4567979,-0.30558103 1.1912166,-0.68086603 1.6970629,-0.86718899 0.4334373,-0.159646 1.1384164,-0.335122 1.2444063,-0.309743 0.2437607,0.05837 0.3849222,0.225295 0.3849222,0.45520896 0,0.107324 -0.039561,0.206268 -0.1883759,0.471017 C 6.8514067,1.6409537 6.6268252,2.2258797 6.4855134,2.9244147 l -0.073565,0.36383 0.00106,0.759296 0.00101,0.759296 0.084709,0.396142 c 0.1753827,0.820145 0.5302842,1.639387 0.995772,2.29862 0.2858844,0.404857 0.8894244,1.024057 1.2730925,1.306112 1.9851971,1.4594323 4.5963421,1.5811163 6.7043161,0.312432 0.33324,-0.200558 0.500335,-0.229744 0.665668,-0.11627 0.27298,0.187361 0.292753,0.342516 0.118974,0.9336915 -0.47511,1.6162668 -1.344374,2.9835048 -2.533909,3.9854988 -0.666999,0.561848 -1.629503,1.122009 -2.438489,1.419164 -0.446108,0.16386 -1.073737,0.319016 -1.5864407,0.39217 -0.4311079,0.0615 -1.2198318,0.101145 -1.5614714,0.07843 z M 9.1214925,13.77439 c 0.9892975,-0.100457 1.9395475,-0.442433 2.7636995,-0.994639 0.352607,-0.236251 0.901665,-0.6901 0.901665,-0.745301 0,-0.01779 -0.201455,-0.03012 -0.491621,-0.03012 -1.24884,0 -2.4260151,-0.28337 -3.5579576,-0.856475 C 7.1831169,10.360983 5.9597482,9.1223687 5.1944271,7.5608627 4.6516228,6.4533527 4.412631,5.4802187 4.3801391,4.2452807 c -0.00942,-0.361061 -0.028194,-0.656474 -0.041656,-0.656474 -0.049191,0 -0.5153374,0.563175 -0.7332577,0.885845 -1.6073861,2.380057 -1.3053515,5.5449233 0.7227453,7.5730103 1.2626943,1.2627 3.0439889,1.904364 4.793488,1.726735 z"
       id="path1417" />
  </g>
</svg>
